<?xml version="1.0" encoding="utf-8"?>
<!-- Uploaded to: SVG Repo, www.svgrepo.com, Generator: SVG Repo Mixer Tools -->
<svg width="800px" height="800px" viewBox="0 0 1024 1024" class="icon"  version="1.1" xmlns="http://www.w3.org/2000/svg"><path d="M576 298.666667c256 0 277.333333 64 277.333333 64s42.666667 85.333333 42.666667 170.666666c0 153.941333-42.666667 362.666667-320 362.666667s-320-208.725333-320-362.666667c0-85.333333 42.666667-170.666667 42.666667-170.666666s21.333333-64 277.333333-64z" fill="#795548" /><path d="M576 277.333333c-153.173333 0-277.333333 43.008-277.333333 96 0 53.013333 124.16 96 277.333333 96s277.333333-42.986667 277.333333-96c0-52.992-124.16-96-277.333333-96z" fill="#4E342E" /><path d="M809.408 373.333333C795.306667 356.032 715.477333 320 576 320s-219.328 36.032-233.408 53.333333c14.08 17.301333 93.909333 53.333333 233.408 53.333334a738.346667 738.346667 0 0 0 73.301333-3.562667l48.874667 36.245333c20.501333 36.842667 34.752 89.216 42.261333 147.541334l0.106667-0.384c1.557333-16.341333 7.658667-111.616-6.037333-180.373334-1.301333-5.632-2.453333-11.2-3.904-16.96l-2.090667 0.277334c45.824-11.690667 73.216-26.688 80.896-36.117334z" fill="#FAFAFA" /><path d="M730.602667 409.173333c18.730667 68.842667 11.626667 179.626667 9.941333 197.333334 4.501333 23.296 6.805333 129.301333 5.76 163.498666 10.346667-22.336 20.885333-60.138667 20.885333-60.138666 1.578667-5.589333 34.474667-123.648 12.117334-271.189334l-48.704-29.504z" fill="#3E2723" /><path d="M646.016 423.402667l136.789333-256.512L896 125.781333 882.496 85.333333l-121.258667 43.776a21.269333 21.269333 0 0 0-12.074666 10.197334l-153.088 287.04a713.173333 713.173333 0 0 0 49.941333-2.944z" fill="#FF1744" /><path d="M310.165333 346.090667c18.794667 16.128 32.426667 27.242667 32.426667 27.242666 9.173333 11.264 46.4 30.421333 109.653333 42.453334A170.666667 170.666667 0 0 0 298.666667 170.666667a170.666667 170.666667 0 0 0-170.666667 170.666666c0 80 55.104 146.965333 129.365333 165.418667 7.146667-75.584 42.645333-154.090667 52.8-160.661333z" fill="#FFEB3B" /><path d="M576 896c-34.346667 1.664-68.736-9.621333-98.858667-27.306667a234.24 234.24 0 0 1-76.074666-72.597333c-19.669333-29.504-32.213333-63.018667-38.656-96.874667-6.357333-33.92-6.741333-68.48 0.256-101.845333 10.730667 32.341333 20.181333 63.274667 31.765333 92.736a452.501333 452.501333 0 0 0 42.218667 82.453333C470.122667 823.616 516.288 864.746667 576 896zM586.666667 662.229333c8.682667 19.605333 12.821333 39.253333 15.829333 58.88 2.730667 19.648 3.712 39.274667 3.114667 58.88a325.674667 325.674667 0 0 1-6.976 58.752c-4.693333 19.306667-9.792 39.466667-22.634667 57.258667-4.885333-20.458667-8.832-39.552-10.88-59.114667a415.530667 415.530667 0 0 1 3.925333-116.437333c3.818667-19.413333 8.533333-38.805333 17.621334-58.218667z" fill="#5D4037" /><path d="M277.333333 192h42.666667v149.333333h-42.666667z" fill="#FFFDE7" /><path d="M208.170667 220.650667l-30.165334 30.165333 106.901334 107.349333 30.186666-30.165333z" fill="#FFFDE7" /><path d="M310.165333 346.090667c7.552 6.485333 14.229333 12.117333 19.562667 16.576h120.938667v-42.666667H149.333333v42.666667h149.333334c1.856-5.674667 6.933333-11.221333 11.498666-16.576z" fill="#FFFDE7" /><path d="M310.165333 346.090667l8.832 7.530666 100.352-102.805333-30.186666-30.165333-211.157334 211.178666 30.165334 30.165334 83.221333-83.242667c7.274667-18.261333 14.4-27.541333 18.773333-32.661333z" fill="#FFFDE7" /><path d="M160 341.333333c0-76.48 62.186667-138.666667 138.666667-138.666666 76.458667 0 138.666667 62.186667 138.666666 138.666666a137.408 137.408 0 0 1-17.6 67.114667c9.92 2.624 20.757333 5.077333 32.490667 7.338667A170.666667 170.666667 0 0 0 298.666667 170.666667a170.666667 170.666667 0 0 0-170.666667 170.666666c0 80 55.104 146.965333 129.365333 165.418667 1.045333-10.837333 2.581333-21.504 4.544-31.850667C203.242667 458.730667 160 405.034667 160 341.333333z" fill="#FFC107" /></svg>